<svg id="visual" viewBox="0 0 1920 1080" width="1920" height="1080" xmlns="http://www.w3.org/2000/svg" xmlns:xlink="http://www.w3.org/1999/xlink" version="1.1"><rect x="0" y="0" width="1920" height="1080" fill="#001220"></rect><defs><linearGradient id="grad1_0" x1="43.8%" y1="0%" x2="100%" y2="100%"><stop offset="14.444444444444446%" stop-color="#001220" stop-opacity="1"></stop><stop offset="85.55555555555554%" stop-color="#001220" stop-opacity="1"></stop></linearGradient></defs><defs><linearGradient id="grad2_0" x1="0%" y1="0%" x2="56.3%" y2="100%"><stop offset="14.444444444444446%" stop-color="#001220" stop-opacity="1"></stop><stop offset="85.55555555555554%" stop-color="#001220" stop-opacity="1"></stop></linearGradient></defs><g transform="translate(1920, 0)"><path d="M0 918C-87.2 925.6 -174.3 933.2 -237.6 886.7C-300.9 840.2 -340.2 739.7 -394 682.4C-447.8 625.2 -516 611.3 -573.5 573.5C-631 535.6 -677.8 473.9 -711 410.5C-744.2 347.1 -763.7 282 -795.9 213.3C-828.1 144.6 -873.1 72.3 -918 0L0 0Z" fill="#3B82F6"></path></g><g transform="translate(0, 1080)"><path d="M0 -918C75 -885.2 149.9 -852.4 219.5 -819.1C289 -785.8 353.2 -752.1 413 -715.3C472.8 -678.6 528.2 -638.9 600.3 -600.3C672.5 -561.8 761.4 -524.3 795 -459C828.6 -393.7 806.9 -300.4 818.1 -219.2C829.4 -138.1 873.7 -69 918 0L0 0Z" fill="#3B82F6"></path></g></svg>